<svg xmlns="http://www.w3.org/2000/svg" width="100%" height="100%" viewBox="0 0 1200 1100" style="background-color:#fff"><style>@font-face{font-family:&apos;Comic Shanns&apos;;src:url(https://excalidraw.nyc3.cdn.digitaloceanspaces.com/oss/fonts/ComicShanns/ComicShanns-Regular-279a7b317d12eb88de06167bd672b4b4.woff2) format(&apos;woff2&apos;)}text{font-family:&apos;Comic Shanns&apos;,cursive}</style><defs><marker id="a-sync" markerHeight="6" markerWidth="6" orient="auto" refX="9" refY="5" viewBox="0 0 10 10"><path fill="#404040" d="M 0 0 L 10 5 L 0 10 z"/></marker><marker id="a-async" markerHeight="6" markerWidth="6" orient="auto" refX="9" refY="5" viewBox="0 0 10 10"><path fill="#b91c1c" d="M 0 0 L 10 5 L 0 10 z"/></marker></defs><g><path fill="#fafafa" stroke="none" d="M 299.3,39.3 C 599.7,41.1 750.4,38.6 899.5,40.4 C 904.2,101.0 899.7,129.8 899.7,158.8 C 599.7,159.8 450.6,161.5 299.2,159.6 C 298.2,100.9 300.5,70.1 298.6,40.8 Z"/><path fill="none" stroke="#d4d4d4" stroke-width="1.5" d="M 299.9,40.1 C 600.1,38.6 750.3,38.0 900.7,39.9 M 898.8,40.9 C 897.4,100.2 901.6,129.1 900.6,158.7 M 899.5,159.5 C 600.4,160.1 450.2,159.9 299.2,159.9 M 301.5,161.5 C 298.1,99.2 301.8,69.8 301.0,40.6 M 300.6,39.5 C 600.1,38.2 749.7,40.7 900.8,40.0 M 899.7,39.3 C 896.7,99.6 897.6,129.8 899.2,160.6 M 900.7,160.5 C 599.7,161.7 449.4,162.3 299.3,159.3 M 301.3,161.1 C 299.9,99.2 301.8,70.5 300.6,40.7"/></g><text x="600" y="65" fill="#a3a3a3" font-size="10" font-weight="700" letter-spacing=".5" text-anchor="middle">CLIENT LAYER</text><g><path fill="#fafafa" stroke="none" d="M 148.8,239.8 C 599.8,237.5 825.4,239.8 1049.6,239.8 C 1045.3,300.5 1053.8,330.6 1051.7,359.0 C 600.6,358.2 375.0,361.3 150.3,358.8 C 145.1,300.4 147.4,271.0 149.9,238.2 Z"/><path fill="none" stroke="#d4d4d4" stroke-width="1.5" d="M 149.9,240.4 C 599.8,239.1 825.2,240.6 1050.4,239.1 M 1048.5,239.7 C 1055.5,300.5 1051.4,328.7 1048.6,361.7 M 1048.9,361.0 C 600.8,362.3 374.7,358.7 150.0,359.0 M 150.8,358.1 C 148.7,299.9 147.5,271.3 148.6,241.3 M 150.0,240.4 C 600.4,237.4 824.8,243.3 1050.3,240.5 M 1049.9,239.4 C 1044.6,299.6 1048.2,330.5 1048.9,360.4 M 1049.5,360.4 C 600.5,362.3 375.0,363.7 151.0,360.2 M 150.6,359.7 C 149.5,301.2 146.4,271.1 150.1,238.6"/></g><text x="600" y="265" fill="#a3a3a3" font-size="10" font-weight="700" letter-spacing=".5" text-anchor="middle">API LAYER</text><g><path fill="#fafafa" stroke="none" d="M 148.8,439.1 C 599.6,442.0 825.5,442.0 1050.3,440.4 C 1046.9,508.7 1053.8,544.3 1051.9,579.4 C 599.8,579.7 374.8,577.1 150.5,579.1 C 153.1,511.1 152.3,475.5 152.1,438.3 Z"/><path fill="none" stroke="#d4d4d4" stroke-width="1.5" d="M 149.4,440.5 C 599.5,437.3 824.4,439.7 1050.5,440.9 M 1049.1,439.7 C 1054.5,511.0 1047.6,545.7 1051.4,580.5 M 1051.1,580.7 C 600.4,579.5 374.9,580.5 149.4,580.9 M 151.3,581.3 C 151.3,510.5 148.5,475.1 152.0,440.8 M 148.8,440.9 C 599.6,443.0 825.2,439.6 1050.6,438.8 M 1049.7,439.6 C 1046.3,511.3 1047.6,545.5 1049.9,581.9 M 1049.2,579.8 C 599.2,582.4 374.7,578.3 149.4,579.2 M 148.5,581.7 C 144.5,511.0 145.4,475.3 148.6,439.9"/></g><text x="600" y="465" fill="#a3a3a3" font-size="10" font-weight="700" letter-spacing=".5" text-anchor="middle">DATA LAYER</text><g><path fill="#fafafa" stroke="none" d="M 149.6,660.3 C 599.9,660.1 825.6,657.2 1049.3,659.8 C 1052.9,731.2 1045.5,766.1 1049.4,799.5 C 599.4,797.4 375.0,797.6 149.9,801.2 C 148.1,729.0 146.4,694.4 151.6,658.5 Z"/><path fill="none" stroke="#d4d4d4" stroke-width="1.5" d="M 149.0,660.5 C 599.6,661.7 825.3,659.8 1050.4,661.1 M 1048.4,658.8 C 1053.4,729.0 1049.9,765.4 1051.7,799.4 M 1049.1,799.6 C 599.8,796.8 375.6,798.2 148.9,799.3 M 150.4,800.6 C 154.0,729.9 147.9,693.9 148.7,658.3 M 149.3,659.0 C 599.4,663.3 824.3,662.8 1050.4,659.4 M 1049.3,658.3 C 1049.3,731.3 1051.7,765.7 1052.0,801.7 M 1051.1,800.3 C 600.6,800.7 375.7,801.8 149.3,801.1 M 148.5,800.7 C 151.5,728.8 145.7,694.2 149.0,658.6"/></g><text x="600" y="685" fill="#a3a3a3" font-size="10" font-weight="700" letter-spacing=".5" text-anchor="middle">GRADING SERVICE</text><g><path fill="#fafafa" stroke="none" d="M 249.2,881.2 C 599.9,879.1 774.2,877.5 951.1,879.0 C 944.7,940.9 944.9,971.4 950.7,1000.6 C 600.5,1002.3 424.5,1001.6 250.4,999.0 C 253.1,941.3 251.9,909.9 251.3,880.9 Z"/><path fill="none" stroke="#d4d4d4" stroke-width="1.5" d="M 251.2,878.8 C 599.2,882.7 775.8,878.1 950.6,879.1 M 950.9,879.1 C 947.3,939.2 945.6,969.9 949.0,998.9 M 949.8,998.9 C 600.7,998.9 425.8,1000.8 250.2,999.6 M 248.0,998.5 C 252.6,940.0 252.9,908.7 248.6,881.8 M 251.0,879.2 C 600.6,883.4 775.3,880.0 949.0,879.0 M 948.5,878.1 C 945.8,939.1 946.2,970.8 951.5,1001.3 M 950.7,1000.3 C 600.0,1000.1 425.4,998.9 250.8,999.8 M 251.4,999.6 C 250.3,940.7 255.1,910.2 249.5,881.5"/></g><text x="600" y="905" fill="#a3a3a3" font-size="10" font-weight="700" letter-spacing=".5" text-anchor="middle">EXTERNAL SERVICES</text><path fill="none" stroke="#404040" stroke-width="1.8" d="M 600.0,160.0 C 599.8,171.3 601.2,177.2 600.0,183.0"/><text x="600" y="199" fill="#404040" font-size="11" font-weight="600" text-anchor="middle">REST / JSON</text><path fill="none" stroke="#404040" stroke-width="1.8" marker-end="url(#a-sync)" d="M 600.0,205.0 C 600.7,219.8 600.9,227.3 600.0,235.0"/><path fill="none" stroke="#404040" stroke-width="1.8" d="M 310.0,360.0 C 309.8,371.4 309.9,377.5 310.0,383.0"/><text x="310" y="399" fill="#404040" font-size="11" font-weight="600" text-anchor="middle">Drizzle ORM</text><path fill="none" stroke="#404040" stroke-width="1.8" marker-end="url(#a-sync)" d="M 310.0,405.0 C 309.8,420.1 310.6,427.6 310.0,435.0"/><path fill="none" stroke="#b91c1c" stroke-dasharray="6 4" stroke-width="1.8" d="M 600.0,360.0 C 600.9,371.6 600.6,377.4 600.0,383.0"/><text x="600" y="399" fill="#b91c1c" font-size="11" font-weight="600" text-anchor="middle">Redis Streams</text><path fill="none" stroke="#b91c1c" stroke-dasharray="6 4" stroke-width="1.8" marker-end="url(#a-async)" d="M 600.0,405.0 C 600.8,420.2 600.1,427.5 600.0,435.0"/><path fill="none" stroke="#404040" stroke-width="1.8" d="M 890.0,360.0 C 889.9,371.4 889.9,377.1 890.0,383.0"/><text x="890" y="399" fill="#404040" font-size="11" font-weight="600" text-anchor="middle">S3 API</text><path fill="none" stroke="#404040" stroke-width="1.8" marker-end="url(#a-sync)" d="M 890.0,405.0 C 890.0,420.2 889.0,427.5 890.0,435.0"/><path fill="none" stroke="#b91c1c" stroke-dasharray="6 4" stroke-width="1.8" d="M 600.0,580.0 C 600.0,591.7 600.8,597.4 600.0,603.0"/><text x="600" y="619" fill="#b91c1c" font-size="11" font-weight="600" text-anchor="middle">Task Queue</text><path fill="none" stroke="#b91c1c" stroke-dasharray="6 4" stroke-width="1.8" marker-end="url(#a-async)" d="M 600.0,625.0 C 600.7,640.3 599.5,647.6 600.0,655.0"/><path fill="none" stroke="#b91c1c" stroke-dasharray="6 4" stroke-width="1.8" d="M 600.0,800.0 C 599.3,822.7 599.2,833.7 600.0,845.0"/><path fill="none" stroke="#b91c1c" stroke-dasharray="6 4" stroke-width="1.8" d="M 600.0,845.0 C 520.0,844.2 479.9,844.5 440.0,845.0"/><path fill="none" stroke="#b91c1c" stroke-dasharray="6 4" stroke-width="1.8" d="M 600.0,845.0 C 679.9,844.2 720.1,844.3 760.0,845.0"/><path fill="none" stroke="#b91c1c" stroke-dasharray="6 4" stroke-width="1.8" marker-end="url(#a-async)" d="M 440.0,845.0 C 440.3,859.9 439.0,867.4 440.0,875.0"/><path fill="none" stroke="#b91c1c" stroke-dasharray="6 4" stroke-width="1.8" marker-end="url(#a-async)" d="M 760.0,845.0 C 760.1,860.2 759.9,867.4 760.0,875.0"/><text x="600" y="838" fill="#b91c1c" stroke="#fff" stroke-linejoin="round" stroke-width="4" font-size="11" font-weight="600" paint-order="stroke" text-anchor="middle">HTTPS</text><g><path fill="#fff" stroke="none" d="M 350.6,80.6 C 600.2,77.7 725.4,81.4 850.1,80.5 C 852.0,109.8 847.6,124.2 850.7,139.4 C 599.9,140.9 475.0,141.9 350.8,140.7 C 350.2,110.5 345.6,95.2 348.8,81.0 Z"/><path fill="none" stroke="#d4d4d4" stroke-width="1.2" d="M 349.8,80.0 C 600.2,79.1 724.8,78.9 849.9,79.9 M 850.7,79.4 C 852.6,110.3 853.4,124.6 850.9,141.3 M 849.5,139.7 C 599.9,139.9 474.5,138.3 349.6,140.5 M 350.9,140.1 C 348.5,110.4 350.7,95.0 349.2,79.0 M 350.6,80.2 C 600.3,79.9 724.9,80.8 850.4,79.1 M 850.2,79.9 C 850.4,110.0 847.5,124.7 849.5,140.8 M 850.0,139.3 C 599.7,138.9 474.9,139.3 349.9,139.5 M 350.8,140.6 C 350.0,109.6 348.8,95.5 349.5,80.2"/></g><image width="40" height="40" x="375" y="90" href="https://cdn.jsdelivr.net/gh/devicons/devicon@latest/icons/react/react-original.svg"/><text x="430" y="105" fill="#262626" font-size="15" font-weight="700">Web Application</text><text x="430" y="125" fill="#737373" font-size="13" font-weight="400">React 19 • Vite 7 • TypeScript SPA</text><g><path fill="#fff" stroke="none" d="M 200.6,280.8 C 599.9,279.0 799.6,278.9 1000.9,279.8 C 1002.2,310.7 999.3,324.5 1001.2,341.2 C 599.9,339.5 400.1,342.2 200.6,340.9 C 198.6,310.7 200.7,295.8 201.0,279.2 Z"/><path fill="none" stroke="#d4d4d4" stroke-width="1.2" d="M 200.0,280.5 C 600.2,280.3 799.9,280.8 1000.8,279.6 M 1000.0,279.5 C 1001.7,310.6 996.6,325.1 1001.0,341.3 M 1000.8,339.5 C 599.8,342.4 400.6,341.9 200.1,340.7 M 200.9,341.2 C 197.2,310.9 199.6,294.5 198.6,279.6 M 199.5,279.4 C 599.5,280.2 800.4,278.5 999.8,279.4 M 999.8,279.0 C 1004.0,310.2 999.8,325.1 999.7,339.8 M 1000.8,340.7 C 600.1,341.8 399.9,340.8 199.4,339.3 M 200.2,341.2 C 196.0,310.2 198.3,296.0 200.6,281.3"/></g><image width="40" height="40" x="225" y="290" href="https://cdn.jsdelivr.net/gh/devicons/devicon@latest/icons/bun/bun-original.svg"/><text x="285" y="305" fill="#262626" font-size="15" font-weight="700">Backend API Server</text><text x="285" y="325" fill="#737373" font-size="13" font-weight="400">Bun • Elysia • JWT Auth</text><g><path fill="#fff" stroke="none" d="M 181.0,480.8 C 310.5,482.7 375.5,477.1 440.0,479.4 C 439.6,520.3 435.8,540.0 438.9,559.1 C 309.5,560.7 244.6,562.4 180.9,559.1 C 181.0,520.4 181.1,499.8 180.5,479.3 Z"/><path fill="none" stroke="#d4d4d4" stroke-width="1.2" d="M 179.3,480.4 C 310.0,479.8 374.6,480.9 439.6,479.3 M 440.5,480.8 C 441.4,520.1 442.5,540.7 441.1,561.3 M 439.3,559.5 C 310.4,559.9 245.5,559.1 178.8,561.1 M 178.9,559.9 C 181.6,519.4 181.2,500.0 181.2,479.0 M 180.5,479.3 C 309.7,482.4 375.2,480.4 439.1,479.7 M 440.9,480.5 C 441.4,520.9 441.4,540.7 440.0,558.5 M 439.0,560.8 C 309.9,561.9 245.3,563.4 180.3,560.9 M 178.8,558.6 C 179.6,519.4 181.6,500.7 181.2,481.2"/></g><image width="45" height="45" x="200" y="495" href="https://cdn.jsdelivr.net/gh/devicons/devicon@latest/icons/postgresql/postgresql-original.svg"/><text x="260" y="515" fill="#262626" font-size="15" font-weight="700">PostgreSQL 17</text><text x="260" y="535" fill="#737373" font-size="13" font-weight="400">Primary Database</text><g><path fill="#fff" stroke="none" d="M 470.2,478.9 C 600.1,480.8 664.4,482.0 729.6,479.1 C 729.9,519.2 730.5,539.8 729.7,559.4 C 599.7,557.7 534.4,558.4 469.5,560.2 C 473.7,520.3 470.6,500.0 469.9,479.0 Z"/><path fill="none" stroke="#d4d4d4" stroke-width="1.2" d="M 470.4,480.7 C 600.8,478.2 664.6,478.6 730.0,480.0 M 728.8,479.5 C 731.4,520.1 731.3,539.8 729.4,560.2 M 729.1,560.5 C 599.7,558.1 535.7,561.6 470.6,559.8 M 470.7,560.9 C 470.2,519.0 469.6,500.0 469.7,478.9 M 471.0,479.2 C 600.1,478.9 665.7,482.5 730.7,480.1 M 730.9,479.2 C 731.7,520.3 730.5,540.8 730.2,559.7 M 730.0,560.0 C 600.7,560.8 535.2,561.2 469.8,559.1 M 469.0,558.9 C 468.7,519.7 469.6,499.5 469.1,479.0"/></g><image width="45" height="45" x="490" y="495" href="https://cdn.jsdelivr.net/gh/devicons/devicon@latest/icons/redis/redis-original.svg"/><text x="550" y="515" fill="#262626" font-size="15" font-weight="700">Redis 7</text><text x="550" y="535" fill="#737373" font-size="13" font-weight="400">Streams • Cache</text><g><path fill="#fff" stroke="none" d="M 761.1,479.0 C 889.9,482.1 954.9,481.4 1020.9,479.8 C 1020.3,520.9 1017.9,540.5 1019.5,559.2 C 890.5,559.6 825.4,561.3 761.1,559.2 C 757.3,520.3 761.2,500.9 761.4,479.8 Z"/><path fill="none" stroke="#d4d4d4" stroke-width="1.2" d="M 761.0,480.4 C 890.2,483.0 954.5,480.3 1020.6,481.0 M 1018.8,479.5 C 1021.8,519.7 1020.8,540.0 1021.3,559.9 M 1019.0,560.2 C 890.3,561.6 824.4,563.1 758.9,559.0 M 761.1,559.2 C 760.7,520.3 760.6,500.3 759.2,478.6 M 760.0,479.3 C 890.7,478.1 954.6,479.3 1021.1,480.3 M 1021.3,480.6 C 1021.0,520.0 1022.3,540.4 1019.5,558.9 M 1019.0,560.9 C 890.3,560.2 825.5,558.1 759.9,559.7 M 758.6,559.6 C 760.1,520.2 759.4,499.6 759.4,480.8"/></g><image width="45" height="45" x="780" y="495" href="https://cdn.jsdelivr.net/npm/simple-icons@v13/icons/amazons3.svg"/><text x="840" y="515" fill="#262626" font-size="15" font-weight="700">Object Storage</text><text x="840" y="535" fill="#737373" font-size="13" font-weight="400">S3-compatible • Audio files</text><g><path fill="#fff" stroke="none" d="M 179.1,700.8 C 310.8,702.4 375.5,698.7 439.4,700.7 C 442.9,740.5 442.8,759.1 439.0,780.5 C 310.0,778.9 244.3,780.1 180.2,780.8 C 175.8,740.1 182.9,720.4 181.4,699.0 Z"/><path fill="none" stroke="#d4d4d4" stroke-width="1.2" d="M 179.2,700.4 C 310.5,701.8 374.6,696.9 440.3,700.0 M 440.3,698.7 C 441.1,740.5 437.5,759.7 440.9,779.2 M 440.0,779.1 C 310.5,782.9 245.1,780.9 181.1,779.7 M 179.1,778.6 C 181.5,740.8 182.4,720.5 181.1,699.2 M 179.0,700.2 C 310.0,702.2 374.9,701.8 439.8,701.0 M 440.9,700.3 C 441.2,739.9 441.7,759.2 440.9,778.6 M 441.0,780.3 C 309.9,781.8 245.4,776.8 180.1,779.3 M 178.9,781.0 C 180.5,740.5 180.6,719.8 178.6,699.3"/></g><image width="45" height="45" x="200" y="715" href="https://cdn.jsdelivr.net/gh/devicons/devicon@latest/icons/python/python-original.svg"/><text x="260" y="735" fill="#262626" font-size="15" font-weight="700">Grading Worker</text><text x="260" y="755" fill="#737373" font-size="13" font-weight="400">Python • FastAPI</text><g><path fill="#fff" stroke="none" d="M 469.0,699.7 C 600.4,700.8 664.5,697.2 730.8,700.3 C 726.1,739.9 733.4,759.9 730.2,780.0 C 600.3,777.5 534.3,778.6 469.7,780.4 C 469.2,740.9 469.2,719.9 470.8,699.1 Z"/><path fill="none" stroke="#d4d4d4" stroke-width="1.2" d="M 471.1,699.2 C 599.4,700.6 664.6,702.4 728.9,701.2 M 730.3,701.3 C 727.6,740.2 730.8,760.2 730.5,781.2 M 731.0,780.6 C 600.2,782.1 535.4,777.6 471.1,780.2 M 468.9,781.0 C 466.7,740.8 470.1,720.3 470.5,699.1 M 470.0,700.2 C 600.4,700.3 665.1,697.6 729.5,701.0 M 731.4,700.2 C 732.3,739.9 731.8,759.9 729.6,780.4 M 729.0,780.2 C 600.2,780.3 535.7,778.7 470.0,779.5 M 469.9,781.4 C 472.4,740.0 468.2,719.9 470.3,698.6"/></g><image width="40" height="40" x="490" y="715" href="https://unpkg.com/lucide-static@latest/icons/file-text.svg"/><text x="550" y="735" fill="#262626" font-size="15" font-weight="700">Writing Pipeline</text><text x="550" y="755" fill="#737373" font-size="13" font-weight="400">LLM • VSTEP Rubric</text><g><path fill="#fff" stroke="none" d="M 761.1,700.4 C 889.5,702.0 954.2,702.0 1019.5,700.1 C 1020.6,740.4 1022.8,759.3 1021.0,779.9 C 890.3,779.8 824.7,781.6 759.4,780.2 C 761.2,740.5 758.4,719.2 759.6,700.8 Z"/><path fill="none" stroke="#d4d4d4" stroke-width="1.2" d="M 761.0,701.1 C 889.9,699.6 954.9,698.3 1020.9,699.0 M 1018.6,698.8 C 1020.4,739.1 1018.1,760.2 1020.6,779.8 M 1021.1,779.7 C 890.3,780.4 825.3,779.4 760.6,779.7 M 760.4,779.1 C 761.7,739.2 756.2,720.6 759.1,699.5 M 758.9,699.0 C 889.3,699.9 954.5,698.8 1019.8,699.1 M 1019.3,698.5 C 1018.4,739.9 1016.2,760.6 1019.8,778.8 M 1018.9,781.0 C 890.4,781.4 825.2,780.3 760.2,779.4 M 759.5,779.7 C 761.6,740.8 760.2,719.1 760.8,700.0"/></g><image width="40" height="40" x="780" y="715" href="https://unpkg.com/lucide-static@latest/icons/mic.svg"/><text x="840" y="735" fill="#262626" font-size="15" font-weight="700">Speaking Pipeline</text><text x="840" y="755" fill="#737373" font-size="13" font-weight="400">STT + LLM • VSTEP Rubric</text><g><path fill="#fff" stroke="none" d="M 299.6,919.3 C 439.8,918.5 509.6,921.1 579.7,919.8 C 577.5,950.0 579.4,965.1 579.2,979.7 C 440.4,979.5 369.7,980.6 299.4,979.8 C 300.9,950.2 300.8,935.5 299.7,920.2 Z"/><path fill="none" stroke="#d4d4d4" stroke-width="1.2" d="M 300.3,920.5 C 440.2,918.9 510.2,921.0 579.6,920.7 M 579.9,920.6 C 580.4,949.9 581.3,965.3 580.8,979.4 M 580.5,979.5 C 439.9,979.1 370.4,981.1 299.8,979.7 M 300.3,980.5 C 301.2,950.5 298.3,934.6 300.5,920.8 M 300.6,920.1 C 440.3,918.1 510.3,918.4 579.6,920.6 M 579.9,919.5 C 581.2,949.8 580.7,965.4 579.3,979.7 M 580.0,980.2 C 440.0,979.2 369.7,980.1 300.7,979.5 M 300.8,979.9 C 299.7,950.4 301.6,935.0 300.0,920.5"/></g><image width="35" height="35" x="320" y="930" href="https://cdn.jsdelivr.net/npm/simple-icons@v13/icons/openai.svg"/><text x="370" y="945" fill="#262626" font-size="14" font-weight="700">LLM Provider</text><text x="370" y="965" fill="#737373" font-size="12" font-weight="400">OpenAI GPT-4o • Cloudflare AI</text><g><path fill="#fff" stroke="none" d="M 620.4,920.6 C 760.1,918.6 830.0,918.2 900.0,920.4 C 899.8,950.1 902.1,965.3 900.7,979.5 C 760.2,981.4 689.8,980.4 620.1,980.5 C 619.8,950.0 621.4,935.0 619.3,919.5 Z"/><path fill="none" stroke="#d4d4d4" stroke-width="1.2" d="M 619.8,920.6 C 760.1,918.9 829.8,919.8 900.5,919.6 M 899.4,920.3 C 898.9,949.6 900.6,965.5 900.6,980.0 M 900.2,979.5 C 759.7,979.7 690.0,981.6 620.1,979.9 M 619.2,979.4 C 619.7,950.0 620.0,935.4 620.5,919.5 M 620.5,919.6 C 759.9,920.5 830.2,918.8 900.4,919.7 M 900.5,920.2 C 899.7,949.6 898.0,965.0 900.4,979.7 M 899.9,980.5 C 759.7,981.7 689.6,980.1 620.2,980.4 M 620.0,980.2 C 620.9,949.9 620.4,935.3 620.8,919.8"/></g><image width="40" height="40" x="640" y="930" href="https://cdn.jsdelivr.net/gh/devicons/devicon@latest/icons/cloudflare/cloudflare-original.svg"/><text x="690" y="945" fill="#262626" font-size="14" font-weight="700">STT Provider</text><text x="690" y="965" fill="#737373" font-size="12" font-weight="400">Cloudflare Workers AI</text><g><path fill="#fafafa" stroke="none" d="M 870.7,1019.6 C 1010.3,1021.7 1080.1,1020.5 1149.4,1019.8 C 1148.8,1047.4 1149.2,1061.2 1150.1,1074.7 C 1010.0,1075.9 939.6,1076.4 869.9,1075.5 C 871.5,1047.0 870.5,1034.3 870.6,1019.2 Z"/><path fill="none" stroke="#e5e5e5" stroke-width="1" d="M 870.3,1019.6 C 1010.2,1020.5 1080.0,1020.9 1149.6,1020.1 M 1150.8,1019.8 C 1147.5,1047.2 1151.7,1061.8 1150.6,1075.5 M 1149.8,1075.4 C 1010.0,1075.9 940.1,1075.1 869.4,1075.6 M 870.6,1074.9 C 871.3,1047.4 869.7,1033.3 870.6,1019.5 M 870.1,1020.1 C 1010.0,1018.5 1079.6,1020.6 1149.9,1020.2 M 1149.8,1020.4 C 1148.7,1046.9 1149.2,1061.4 1149.8,1074.9 M 1149.9,1074.7 C 1010.2,1076.9 940.1,1076.3 869.9,1074.7 M 869.2,1075.1 C 868.3,1048.0 869.7,1034.1 869.8,1020.7"/></g><line x1="888" x2="928" y1="1040" y2="1040" stroke="#404040" stroke-width="1.8" marker-end="url(#a-sync)"/><text x="936" y="1044" fill="#525252" font-size="10">Synchronous (HTTP, SQL)</text><line x1="888" x2="928" y1="1060" y2="1060" stroke="#b91c1c" stroke-dasharray="6 4" stroke-width="1.8" marker-end="url(#a-async)"/><text x="936" y="1064" fill="#525252" font-size="10">Asynchronous (Redis Streams)</text></svg>