<svg xmlns="http://www.w3.org/2000/svg" viewBox="0 0 1200 960" width="100%" height="100%" style="background-color: #ffffff;">
  <style>
    @font-face { font-family: 'Comic Shanns'; src: url('https://excalidraw.nyc3.cdn.digitaloceanspaces.com/oss/fonts/ComicShanns/ComicShanns-Regular-279a7b317d12eb88de06167bd672b4b4.woff2') format('woff2'); }
    text { font-family: 'Comic Shanns', cursive; }
  </style>
  <defs>
    <marker id="a-sync" viewBox="0 0 10 10" refX="9" refY="5" markerWidth="6" markerHeight="6" orient="auto">
      <path d="M 0 0 L 10 5 L 0 10 z" fill="#404040"/>
    </marker>
    <marker id="a-async" viewBox="0 0 10 10" refX="9" refY="5" markerWidth="6" markerHeight="6" orient="auto">
      <path d="M 0 0 L 10 5 L 0 10 z" fill="#b91c1c"/>
    </marker>
  </defs>

  <!-- ================================================================ -->
  <!--  FRONTEND                                                        -->
  <!-- ================================================================ -->
  <g>
    <path d="M 279.3,29.3 C 599.7,31.1 760.4,28.6 919.5,30.4 C 924.2,81.0 919.7,104.8 919.7,128.8 C 599.7,129.8 440.6,131.5 279.2,129.6 C 278.2,80.9 280.5,55.1 278.6,30.8 Z" fill="#fafafa" stroke="none"/>
    <path d="M 279.9,30.1 C 600.1,28.6 760.3,28.0 920.7,29.9 M 918.8,30.9 C 917.4,80.2 921.6,104.1 920.6,128.7 M 919.5,129.5 C 600.4,130.1 440.2,129.9 279.2,129.9 M 281.5,131.5 C 278.1,79.2 281.8,54.8 281.0,30.6 M 280.6,29.5 C 600.1,28.2 759.7,30.7 920.8,30.0 M 919.7,29.3 C 916.7,79.6 917.6,104.8 919.2,130.6 M 920.7,130.5 C 599.7,131.7 439.4,132.3 279.3,129.3 M 281.3,131.1 C 279.9,79.2 281.8,55.5 280.6,30.7" fill="none" stroke="#404040" stroke-width="2"/>
  </g>
  <text x="300" y="57" font-weight="700" font-size="15" fill="#262626">Web Application</text>
  <text x="300" y="75" font-size="11" font-weight="500" fill="#737373">[apps/frontend · React 19, Vite 7, TypeScript]</text>

  <g>
    <path d="M 509.2,87.9 C 554.9,86.3 577.8,87.9 599.7,87.9 C 598.1,101.2 601.5,107.7 600.7,113.6 C 555.4,112.8 532.5,114.8 510.2,113.2 C 508.0,101.2 509.0,94.9 510.0,87.3 Z" fill="#ffffff" stroke="none"/>
    <path d="M 510.0,88.3 C 554.9,87.4 577.6,88.4 600.3,87.4 M 599.4,87.9 C 602.2,101.2 600.6,107.0 599.4,114.7 M 599.3,114.7 C 555.5,115.5 532.3,113.1 510.0,113.3 M 510.3,113.2 C 509.5,101.0 509.0,95.0 509.4,88.5 M 510.0,88.3 C 555.3,86.3 577.4,90.2 600.2,88.3 M 599.9,87.8 C 597.8,100.8 599.3,107.7 599.5,114.2 M 599.7,114.2 C 555.3,115.5 532.5,116.4 510.7,114.1 M 510.3,113.9 C 509.8,101.5 508.5,94.9 510.0,87.4" fill="none" stroke="#d4d4d4" stroke-width="1"/>
  </g>
  <text x="555" y="106" font-size="11" font-weight="500" fill="#262626" text-anchor="middle">Pages</text>
  <g>
    <path d="M 607.2,87.4 C 667.8,89.4 698.3,89.3 728.2,88.3 C 726.8,100.5 729.5,107.2 728.8,113.8 C 667.9,113.8 637.9,112.1 608.4,113.4 C 609.3,101.5 608.9,94.7 608.8,87.3 Z" fill="#ffffff" stroke="none"/>
    <path d="M 607.6,88.3 C 667.7,86.2 697.6,87.8 728.3,88.6 M 727.7,87.9 C 729.8,101.4 727.0,107.8 728.6,114.2 M 728.8,114.5 C 668.3,113.7 637.9,114.4 607.6,114.6 M 608.5,114.5 C 608.5,101.2 607.4,94.5 608.8,88.3 M 607.2,88.6 C 667.7,90.0 698.1,87.7 728.4,87.2 M 727.9,87.8 C 726.5,101.5 727.0,107.7 727.9,114.8 M 727.4,113.8 C 667.5,115.6 637.8,112.9 607.6,113.5 M 607.4,114.7 C 605.8,101.4 606.2,94.6 607.4,88.0" fill="none" stroke="#d4d4d4" stroke-width="1"/>
  </g>
  <text x="668" y="106" font-size="11" font-weight="500" fill="#262626" text-anchor="middle">Components</text>
  <g>
    <path d="M 735.8,88.2 C 770.9,88.1 788.9,86.1 805.5,87.9 C 807.1,101.5 804.2,107.9 805.8,113.8 C 770.6,112.3 753.5,112.4 736.0,114.8 C 735.2,100.6 734.6,94.3 736.6,87.4 Z" fill="#ffffff" stroke="none"/>
    <path d="M 735.3,88.3 C 770.7,89.2 788.7,87.9 806.3,88.7 M 805.4,87.5 C 807.3,100.6 806.0,107.7 806.7,113.8 M 805.4,113.7 C 770.9,111.9 753.9,112.8 735.3,113.5 M 736.1,114.2 C 737.6,100.9 735.2,94.1 735.5,87.3 M 735.6,87.3 C 770.6,90.2 788.0,89.9 806.3,87.6 M 805.7,87.3 C 805.7,101.5 806.7,107.8 806.8,114.7 M 806.7,114.2 C 771.4,114.5 754.0,115.2 735.5,114.8 M 735.4,114.3 C 736.6,100.5 734.3,94.2 735.6,87.4" fill="none" stroke="#d4d4d4" stroke-width="1"/>
  </g>
  <text x="771" y="106" font-size="11" font-weight="500" fill="#262626" text-anchor="middle">Hooks</text>
  <g>
    <path d="M 813.4,88.8 C 856.5,87.4 877.2,86.3 899.7,87.3 C 896.9,101.4 897.0,108.1 899.3,114.2 C 856.9,115.5 834.9,115.1 814.2,113.3 C 815.2,101.5 814.8,94.4 814.5,88.4 Z" fill="#ffffff" stroke="none"/>
    <path d="M 814.8,87.2 C 856.0,89.8 878.3,86.7 899.4,87.4 M 899.3,87.6 C 897.9,100.7 897.2,107.5 898.6,113.5 M 898.9,113.3 C 857.0,113.3 835.8,114.5 814.1,113.8 M 813.2,113.4 C 815.0,101.0 815.2,94.0 813.4,88.7 M 814.7,87.5 C 856.9,90.3 878.0,88.0 898.4,87.3 M 898.4,87.2 C 897.3,100.6 897.5,107.8 899.6,114.5 M 899.5,114.2 C 856.5,114.1 835.5,113.3 814.5,113.9 M 814.6,113.8 C 814.1,101.3 816.0,94.6 813.8,88.6" fill="none" stroke="#d4d4d4" stroke-width="1"/>
  </g>
  <text x="856" y="106" font-size="11" font-weight="500" fill="#262626" text-anchor="middle">API Client</text>

  <!-- ================================================================ -->
  <!--  ❶ FRONTEND → BACKEND                                            -->
  <!-- ================================================================ -->
  <path d="M 570.0,130.0 C 571.2,145.0 569.8,152.5 570.0,160.0" fill="none" stroke="#404040" stroke-width="1.8"/>
  <text x="570" y="177" font-size="11" font-weight="600" fill="#404040" text-anchor="middle">❶  HTTP REST / JSON</text>
  <path d="M 570.0,185.0 C 570.2,197.3 570.4,203.5 570.0,210.0" fill="none" stroke="#404040" stroke-width="1.8" marker-end="url(#a-sync)"/>

  <!-- ================================================================ -->
  <!--  BACKEND CONTAINER                                               -->
  <!-- ================================================================ -->
  <g>
    <path d="M 80.8,220.9 C 440.2,216.7 620.6,222.0 800.1,220.7 C 802.2,384.8 797.3,466.6 800.8,549.3 C 439.9,551.3 260.0,552.7 81.1,551.0 C 80.2,385.6 75.0,302.8 78.6,221.1 Z" fill="#fafafa" stroke="none"/>
    <path d="M 79.7,220.0 C 440.3,218.7 619.7,218.4 799.8,219.9 M 800.8,219.4 C 803.0,385.4 803.9,467.0 801.0,551.5 M 799.3,549.5 C 439.9,549.9 259.2,547.6 79.4,550.7 M 81.0,550.1 C 78.3,385.4 80.8,302.5 79.1,218.8 M 80.8,220.3 C 440.4,219.9 619.8,221.1 800.6,218.8 M 800.2,219.8 C 800.5,385.0 797.1,467.2 799.4,550.9 M 800.0,548.9 C 439.6,548.5 259.9,549.0 79.9,549.3 M 80.9,550.7 C 80.1,384.5 78.6,303.1 79.5,220.2" fill="none" stroke="#404040" stroke-width="2"/>
  </g>
  <text x="100" y="248" font-weight="700" font-size="15" fill="#262626">API Server</text>
  <text x="100" y="266" font-size="11" font-weight="500" fill="#737373">[apps/backend · Bun, Elysia, TypeScript]</text>

  <!-- Layer 1: Routing & Middleware -->
  <g>
    <path d="M 100.6,280.8 C 439.9,279.0 609.6,278.9 780.9,279.8 C 782.2,305.7 779.3,317.0 781.2,331.2 C 439.9,329.5 270.1,332.2 100.6,330.9 C 98.6,305.7 100.7,293.3 101.0,279.2 Z" fill="#ffffff" stroke="none"/>
    <path d="M 100.0,280.5 C 440.2,280.3 609.9,280.8 780.8,279.6 M 780.0,279.5 C 781.7,305.6 776.6,317.6 781.0,331.3 M 780.8,329.5 C 439.8,332.4 270.6,331.9 100.1,330.7 M 100.9,331.2 C 97.2,305.9 99.6,292.0 98.6,279.6 M 99.5,279.4 C 439.5,280.2 610.4,278.5 779.8,279.4 M 779.8,279.0 C 784.0,305.2 779.8,317.6 779.7,329.8 M 780.8,330.7 C 440.1,331.8 269.9,330.8 99.4,329.3 M 100.2,331.2 C 96.0,305.2 98.3,293.5 100.6,281.3" fill="none" stroke="#d4d4d4" stroke-width="1.2"/>
  </g>
  <text x="115" y="300" font-size="10" font-weight="700" fill="#525252" letter-spacing="0.5">ROUTING &amp; MIDDLEWARE</text>
  <text x="115" y="318" font-size="12" font-weight="600" fill="#262626">app.ts</text>
  <circle cx="162" cy="314" r="2.5" fill="#a3a3a3"/>
  <text x="172" y="318" font-size="12" font-weight="500" fill="#525252">src/plugins — JWT Auth, Error Handler</text>

  <!-- Layer 2: Domain Modules -->
  <g>
    <path d="M 100.8,340.6 C 440.3,342.0 610.4,337.8 780.0,339.6 C 779.6,392.8 775.8,418.7 778.9,444.1 C 439.6,445.5 269.7,446.8 100.7,444.3 C 101.0,392.9 101.1,366.1 100.5,339.3 Z" fill="#ffffff" stroke="none"/>
    <path d="M 99.4,340.3 C 440.0,339.9 609.7,340.6 779.7,339.5 M 780.5,340.8 C 781.4,392.6 782.5,419.4 781.1,446.3 M 779.5,444.6 C 440.3,444.9 270.4,444.3 99.1,445.8 M 98.9,444.9 C 101.6,391.9 101.2,366.2 101.2,339.0 M 100.4,339.4 C 439.8,341.8 610.1,340.3 779.3,339.8 M 780.9,340.5 C 781.4,393.4 781.4,419.4 780.0,443.5 M 779.2,445.6 C 439.9,446.5 270.2,447.5 100.3,445.7 M 98.8,443.6 C 99.6,391.9 101.6,367.0 101.2,341.2" fill="none" stroke="#d4d4d4" stroke-width="1.2"/>
  </g>
  <text x="115" y="362" font-size="10" font-weight="700" fill="#525252" letter-spacing="0.5">DOMAIN MODULES</text>
  <text x="281" y="362" font-size="10" font-weight="400" fill="#a3a3a3">(src/modules)</text>

  <!-- Row 1 -->
  <g>
    <path d="M 128.2,374.0 Q 144.6,373.8 162.8,375.1 C 179.1,373.9 179.2,401.6 162.4,401.7 Q 143.8,402.3 127.8,400.6 C 111.2,402.7 112.0,372.9 128.2,374.0 Z" fill="#f5f5f5" stroke="none"/>
    <path d="M 128.3,375.6 Q 145.1,375.0 161.8,376.0 C 178.5,373.0 178.4,401.8 161.7,400.5 Q 144.0,400.4 127.7,401.1 C 110.5,401.4 110.5,373.8 128.3,375.6 M 128.7,374.3 Q 145.7,375.1 162.8,375.1 C 178.8,372.8 178.7,403.3 162.8,400.5 Q 145.8,400.0 128.1,400.8 C 110.6,402.2 111.6,374.1 128.7,374.3" fill="none" stroke="#e5e5e5" stroke-width="1"/>
  </g>
  <text x="145" y="393" font-size="11" font-weight="500" fill="#262626" text-anchor="middle">auth</text>
  <g>
    <path d="M 196.8,374.1 Q 214.9,374.7 231.4,374.9 C 249.4,374.5 248.4,402.1 232.2,402.0 Q 215.2,399.7 195.7,400.4 C 178.8,401.6 179.1,374.6 196.8,374.1 Z" fill="#f5f5f5" stroke="none"/>
    <path d="M 196.7,375.4 Q 214.7,376.4 231.6,375.3 C 249.8,374.5 249.1,401.6 231.9,402.0 Q 213.0,400.4 196.8,400.9 C 178.5,401.9 180.0,373.4 196.7,375.4 M 196.0,374.3 Q 215.1,375.5 232.2,375.9 C 248.0,374.3 248.3,401.8 231.7,401.5 Q 215.1,401.7 195.7,400.2 C 178.7,401.7 179.1,373.7 196.0,374.3" fill="none" stroke="#e5e5e5" stroke-width="1"/>
  </g>
  <text x="214" y="393" font-size="11" font-weight="500" fill="#262626" text-anchor="middle">users</text>
  <g>
    <path d="M 265.3,375.8 Q 294.9,376.0 325.5,376.0 C 342.6,374.5 342.9,403.0 324.7,400.6 Q 294.6,400.7 265.5,401.4 C 248.2,402.1 249.7,374.2 265.3,375.8 Z" fill="#f5f5f5" stroke="none"/>
    <path d="M 265.4,375.4 Q 295.8,374.9 324.5,375.6 C 342.5,373.7 341.9,401.7 324.2,400.7 Q 295.7,399.6 266.5,400.4 C 248.5,401.3 250.1,374.2 265.4,375.4 M 265.3,375.2 Q 295.2,376.4 325.2,375.0 C 342.8,373.2 342.6,402.1 325.3,402.0 Q 296.3,401.4 266.5,400.0 C 249.0,403.1 249.6,373.6 265.3,375.2" fill="none" stroke="#e5e5e5" stroke-width="1"/>
  </g>
  <text x="295" y="393" font-size="11" font-weight="500" fill="#262626" text-anchor="middle">questions</text>
  <g>
    <path d="M 358.3,374.8 Q 377.9,375.4 394.2,375.5 C 412.0,374.5 412.6,401.6 394.4,400.0 Q 377.1,400.8 359.1,401.0 C 343.1,401.8 342.5,373.6 358.3,374.8 Z" fill="#f5f5f5" stroke="none"/>
    <path d="M 359.8,374.2 Q 375.8,376.7 394.5,374.2 C 412.2,373.4 412.7,401.7 395.8,400.6 Q 377.3,402.5 359.3,401.9 C 342.5,401.4 342.9,373.9 359.8,374.2 M 359.0,375.2 Q 376.5,376.4 395.4,375.5 C 411.8,374.4 412.4,402.5 394.3,400.9 Q 378.2,401.2 358.8,401.3 C 341.3,401.9 342.7,373.6 359.0,375.2" fill="none" stroke="#e5e5e5" stroke-width="1"/>
  </g>
  <text x="377" y="393" font-size="11" font-weight="500" fill="#262626" text-anchor="middle">exams</text>
  <g>
    <path d="M 429.8,375.4 Q 465.5,375.1 502.4,374.3 C 520.6,373.9 520.0,401.3 503.4,401.8 Q 466.7,400.5 429.6,401.0 C 412.1,402.9 411.6,374.1 429.8,375.4 Z" fill="#f5f5f5" stroke="none"/>
    <path d="M 429.7,375.9 Q 467.0,373.6 503.2,374.8 C 520.0,372.9 519.3,402.2 502.5,400.9 Q 464.8,399.6 429.4,400.8 C 412.1,402.8 411.8,372.8 429.7,375.9 M 428.2,374.1 Q 465.8,373.7 503.7,374.0 C 520.0,373.3 520.6,401.6 502.7,400.7 Q 465.4,399.3 428.9,400.1 C 412.3,401.4 411.7,373.6 428.2,374.1" fill="none" stroke="#e5e5e5" stroke-width="1"/>
  </g>
  <text x="466" y="393" font-size="11" font-weight="500" fill="#262626" text-anchor="middle">submissions</text>
  <g>
    <path d="M 536.5,374.0 Q 558.4,374.5 581.8,374.6 C 597.2,372.8 598.5,401.4 581.6,400.5 Q 559.7,401.2 536.2,400.6 C 521.1,401.5 519.9,373.7 536.5,374.0 Z" fill="#f5f5f5" stroke="none"/>
    <path d="M 537.4,375.7 Q 558.2,376.7 580.5,375.4 C 597.0,374.2 597.2,402.7 581.4,401.6 Q 558.9,402.2 537.8,400.2 C 520.1,403.3 520.6,373.6 537.4,375.7 M 537.8,375.1 Q 558.2,376.6 580.9,375.6 C 596.9,373.0 598.9,403.0 580.2,400.9 Q 558.8,400.1 536.3,400.6 C 519.3,401.7 520.9,373.4 537.8,375.1" fill="none" stroke="#e5e5e5" stroke-width="1"/>
  </g>
  <text x="559" y="393" font-size="11" font-weight="500" fill="#262626" text-anchor="middle">classes</text>
  <g>
    <path d="M 615.5,376.0 Q 651.9,376.0 689.3,375.2 C 705.2,373.2 705.8,402.4 688.2,400.4 Q 652.9,401.9 615.7,400.3 C 598.0,401.5 597.6,373.8 615.5,376.0 Z" fill="#f5f5f5" stroke="none"/>
    <path d="M 614.8,375.9 Q 652.9,374.0 689.6,375.3 C 704.9,374.7 705.4,401.9 688.9,401.2 Q 651.1,401.6 615.6,401.0 C 598.7,402.6 598.8,373.0 614.8,375.9 M 615.7,374.4 Q 652.8,374.3 689.4,374.7 C 706.1,373.9 704.9,402.7 688.4,401.0 Q 652.8,401.5 615.4,400.6 C 598.1,401.6 598.1,373.0 615.7,374.4" fill="none" stroke="#e5e5e5" stroke-width="1"/>
  </g>
  <text x="652" y="393" font-size="11" font-weight="500" fill="#262626" text-anchor="middle">notifications</text>

  <!-- Row 2 -->
  <g>
    <path d="M 128.8,408.4 Q 152.9,408.6 179.8,409.8 C 197.8,408.3 195.9,436.6 180.4,434.3 Q 153.4,436.2 128.1,434.7 C 111.4,435.3 111.5,407.5 128.8,408.4 Z" fill="#f5f5f5" stroke="none"/>
    <path d="M 128.4,408.4 Q 153.3,409.3 179.3,409.6 C 197.5,406.7 197.3,436.3 180.2,436.0 Q 155.2,434.7 128.6,435.6 C 112.1,435.3 112.0,407.1 128.4,408.4 M 128.1,409.2 Q 153.9,409.5 180.0,408.9 C 196.2,406.9 197.2,435.4 180.3,435.1 Q 153.6,435.9 127.8,434.8 C 111.7,436.3 111.1,406.7 128.1,409.2" fill="none" stroke="#e5e5e5" stroke-width="1"/>
  </g>
  <text x="154" y="427" font-size="11" font-weight="500" fill="#262626" text-anchor="middle">progress</text>
  <g>
    <path d="M 214.8,409.9 Q 238.7,409.6 262.3,408.3 C 279.5,407.3 279.4,435.3 261.4,434.5 Q 237.9,436.6 214.6,435.9 C 196.8,436.8 197.6,407.4 214.8,409.9 Z" fill="#f5f5f5" stroke="none"/>
    <path d="M 214.2,409.4 Q 239.2,408.0 261.3,409.7 C 278.5,407.4 279.6,435.6 262.7,435.0 Q 236.9,436.4 214.1,434.1 C 197.8,436.9 197.6,408.0 214.2,409.4 M 213.2,409.3 Q 238.2,407.6 261.2,409.9 C 278.7,407.3 279.3,437.2 261.7,435.9 Q 237.5,436.5 214.3,434.2 C 198.0,435.5 196.2,407.9 213.2,409.3" fill="none" stroke="#e5e5e5" stroke-width="1"/>
  </g>
  <text x="238" y="427" font-size="11" font-weight="500" fill="#262626" text-anchor="middle">practice</text>
  <g>
    <path d="M 296.5,409.7 Q 327.2,407.6 357.9,409.4 C 375.1,408.1 374.4,435.6 357.8,434.4 Q 326.1,435.2 296.1,434.0 C 279.7,435.4 279.5,407.3 296.5,409.7 Z" fill="#f5f5f5" stroke="none"/>
    <path d="M 295.3,408.2 Q 327.2,407.9 357.4,408.9 C 374.7,407.1 374.7,437.0 357.4,434.3 Q 325.8,434.1 295.3,436.0 C 278.7,437.3 278.3,408.5 295.3,408.2 M 296.7,408.4 Q 327.0,407.8 357.2,408.3 C 375.2,407.2 375.3,436.7 358.1,434.1 Q 326.0,434.3 295.8,435.9 C 279.6,436.2 278.4,407.5 296.7,408.4" fill="none" stroke="#e5e5e5" stroke-width="1"/>
  </g>
  <text x="327" y="427" font-size="11" font-weight="500" fill="#262626" text-anchor="middle">vocabulary</text>
  <g>
    <path d="M 392.3,408.3 Q 425.7,408.1 458.4,408.9 C 474.3,407.1 475.9,436.1 457.4,435.2 Q 425.3,433.9 391.8,435.1 C 375.8,435.9 374.5,408.2 392.3,408.3 Z" fill="#f5f5f5" stroke="none"/>
    <path d="M 392.1,408.7 Q 425.9,408.3 458.0,408.7 C 474.7,408.7 474.1,436.2 457.5,434.7 Q 426.3,434.4 392.2,434.8 C 375.6,436.2 374.4,407.6 392.1,408.7 M 392.1,409.6 Q 424.4,410.3 458.7,410.0 C 475.2,407.3 475.6,435.5 458.1,434.2 Q 425.7,435.2 392.5,434.2 C 375.6,436.9 374.3,406.9 392.1,409.6" fill="none" stroke="#e5e5e5" stroke-width="1"/>
  </g>
  <text x="425" y="427" font-size="11" font-weight="500" fill="#262626" text-anchor="middle">onboarding</text>
  <g>
    <path d="M 492.6,408.2 Q 515.8,410.1 538.5,409.0 C 555.0,407.5 553.9,436.6 538.7,435.0 Q 514.5,435.8 491.7,435.6 C 476.1,437.1 474.1,406.7 492.6,408.2 Z" fill="#f5f5f5" stroke="none"/>
    <path d="M 492.1,408.6 Q 513.8,409.5 537.5,408.5 C 554.7,408.0 555.9,436.2 538.8,436.0 Q 514.4,433.6 491.4,435.7 C 475.3,437.2 476.1,408.0 492.1,408.6 M 492.0,408.5 Q 515.6,410.0 538.2,408.0 C 554.4,407.4 555.9,436.6 538.0,435.4 Q 514.0,435.6 492.3,434.4 C 474.8,436.1 476.1,407.4 492.0,408.5" fill="none" stroke="#e5e5e5" stroke-width="1"/>
  </g>
  <text x="515" y="427" font-size="11" font-weight="500" fill="#262626" text-anchor="middle">uploads</text>
  <g>
    <path d="M 572.7,409.4 Q 591.2,408.8 607.8,409.1 C 625.3,406.7 624.1,435.8 608.2,434.1 Q 590.4,433.8 572.4,434.0 C 554.5,436.1 555.1,408.6 572.7,409.4 Z" fill="#f5f5f5" stroke="none"/>
    <path d="M 571.2,408.2 Q 589.7,409.6 607.4,408.2 C 624.3,408.2 624.2,436.8 608.3,434.2 Q 590.1,434.8 571.9,436.0 C 554.2,435.3 556.0,407.5 571.2,408.2 M 571.7,409.6 Q 589.0,408.3 607.8,409.8 C 624.6,407.9 624.1,435.6 608.3,435.1 Q 590.6,434.8 572.0,434.4 C 554.5,435.4 554.4,407.6 571.7,409.6" fill="none" stroke="#e5e5e5" stroke-width="1"/>
  </g>
  <text x="590" y="427" font-size="11" font-weight="500" fill="#262626" text-anchor="middle">health</text>

  <!-- Layer 3: Data Access + Shared Utils -->
  <g>
    <path d="M 99.3,460.3 C 265.6,460.3 348.0,458.3 429.0,460.0 C 427.7,495.5 433.4,511.8 429.1,529.4 C 265.2,526.8 183.1,533.0 99.0,531.0 C 101.5,495.6 99.6,477.7 100.3,459.7 Z" fill="#ffffff" stroke="none"/>
    <path d="M 99.0,459.3 C 265.3,457.7 347.5,463.2 429.5,460.9 M 429.6,458.5 C 434.1,495.7 426.1,511.8 430.8,528.9 M 431.1,529.1 C 264.3,530.3 183.2,532.4 99.2,528.9 M 100.7,530.2 C 100.1,494.5 100.2,476.7 100.2,460.8 M 99.8,459.8 C 265.5,463.2 348.3,459.1 430.9,460.9 M 429.0,460.2 C 428.7,495.7 429.2,512.7 429.7,530.6 M 430.7,529.7 C 265.5,529.9 182.8,529.6 101.1,530.9 M 99.0,528.7 C 96.4,495.7 102.0,477.7 99.4,459.6" fill="none" stroke="#d4d4d4" stroke-width="1.2"/>
  </g>
  <text x="115" y="482" font-size="10" font-weight="700" fill="#525252" letter-spacing="0.5">DATA ACCESS</text>
  <text x="210" y="482" font-size="10" font-weight="400" fill="#a3a3a3">(src/db)</text>
  <text x="115" y="500" font-size="12" font-weight="600" fill="#262626">Drizzle ORM</text>
  <text x="115" y="518" font-size="11" font-weight="400" fill="#737373">Schema definitions · Migrations</text>

  <g>
    <path d="M 449.7,460.4 C 614.8,458.0 698.2,458.4 779.4,459.8 C 783.4,495.5 782.2,512.9 779.1,530.0 C 614.2,528.9 531.9,531.5 450.3,528.8 C 450.5,494.9 447.5,476.7 449.3,460.2 Z" fill="#ffffff" stroke="none"/>
    <path d="M 450.2,460.3 C 615.6,461.9 697.7,460.8 780.7,459.5 M 780.1,459.8 C 781.1,494.1 779.7,513.2 781.3,530.4 M 781.0,530.1 C 615.8,530.8 532.9,531.9 450.4,529.1 M 449.2,529.3 C 448.4,494.2 447.3,477.6 448.5,460.1 M 450.0,460.0 C 615.1,461.0 697.9,462.5 780.6,460.7 M 779.3,459.4 C 782.1,494.0 777.7,513.3 778.5,530.0 M 779.5,530.2 C 614.3,526.7 533.2,532.4 449.1,529.1 M 450.0,529.2 C 449.4,495.1 449.5,477.3 449.3,459.7" fill="none" stroke="#d4d4d4" stroke-width="1.2"/>
  </g>
  <text x="465" y="482" font-size="10" font-weight="700" fill="#525252" letter-spacing="0.5">SHARED UTILS</text>
  <text x="579" y="482" font-size="10" font-weight="400" fill="#a3a3a3">(src/common)</text>
  <text x="465" y="500" font-size="12" font-weight="500" fill="#525252">Error types · Helpers · Constants</text>

  <!-- ================================================================ -->
  <!--  DATABASE (Cylinder) — right side                                -->
  <!-- ================================================================ -->
  <path d="M 920 380 L 920 470 A 90 22 0 0 0 1100 470 L 1100 380 Z" fill="#f5f5f5" stroke="#404040" stroke-width="1.8"/>
  <ellipse cx="1010" cy="380" rx="90" ry="22" fill="#fafafa" stroke="#404040" stroke-width="1.8"/>
  <text x="1010" y="425" font-size="14" font-weight="700" fill="#262626" text-anchor="middle">PostgreSQL</text>
  <text x="1010" y="445" font-size="11" font-weight="400" fill="#737373" text-anchor="middle">[Primary Database]</text>

  <!-- ❷ Backend → DB (horizontal straight) -->
  <path d="M 800.0,425.0 C 857.5,423.9 886.0,424.3 915.0,425.0" fill="none" stroke="#404040" stroke-width="1.8" marker-end="url(#a-sync)"/>
  <text x="855" y="414" font-size="11" font-weight="600" fill="#404040" text-anchor="middle">❷  SQL via ORM</text>

  <!-- ================================================================ -->
  <!--  ❸ BACKEND → REDIS (Publish)                                     -->
  <!-- ================================================================ -->
  <path d="M 440.0,550.0 C 439.0,557.7 440.7,561.5 440.0,565.0" fill="none" stroke="#b91c1c" stroke-width="1.8" stroke-dasharray="6 4"/>
  <text x="440" y="582" font-size="11" font-weight="600" fill="#b91c1c" text-anchor="middle">❸  Publish Task</text>
  <path d="M 440.0,590.0 C 440.3,599.9 439.9,605.0 440.0,610.0" fill="none" stroke="#b91c1c" stroke-width="1.8" stroke-dasharray="6 4" marker-end="url(#a-async)"/>

  <!-- ================================================================ -->
  <!--  MESSAGE BROKER (Pill) — centered                                -->
  <!-- ================================================================ -->
  <g>
    <path d="M 344.9,610.1 Q 439.9,608.8 534.8,609.8 C 579.7,605.8 580.5,683.0 535.8,679.3 Q 439.5,680.4 345.4,679.5 C 298.7,683.7 298.5,606.9 344.9,610.1 Z" fill="#fef2f2" stroke="none"/>
    <path d="M 345.0,610.2 Q 440.9,611.3 535.6,609.7 C 581.4,606.3 580.1,682.6 535.0,679.3 Q 439.4,680.4 345.5,680.5 C 298.6,682.6 299.0,606.6 345.0,610.2 M 345.0,609.4 Q 441.2,611.4 535.4,610.7 C 579.5,607.1 579.7,683.3 535.0,679.5 Q 440.1,679.9 344.2,679.6 C 299.5,684.1 300.0,606.0 345.0,609.4" fill="none" stroke="#b91c1c" stroke-width="1.8"/>
  </g>
  <text x="440" y="642" font-weight="700" font-size="14" fill="#262626" text-anchor="middle">Message Broker</text>
  <text x="440" y="662" font-size="11" font-weight="500" fill="#737373" text-anchor="middle">[Redis Streams]</text>

  <!-- ================================================================ -->
  <!--  ❹ REDIS → GRADING (Consume)                                     -->
  <!-- ================================================================ -->
  <path d="M 440.0,680.0 C 439.7,687.4 438.8,691.0 440.0,695.0" fill="none" stroke="#b91c1c" stroke-width="1.8" stroke-dasharray="6 4"/>
  <text x="440" y="712" font-size="11" font-weight="600" fill="#b91c1c" text-anchor="middle">❹  Consume Task</text>
  <path d="M 440.0,720.0 C 441.0,730.2 439.7,735.1 440.0,740.0" fill="none" stroke="#b91c1c" stroke-width="1.8" stroke-dasharray="6 4" marker-end="url(#a-async)"/>

  <!-- ================================================================ -->
  <!--  GRADING WORKER — below Redis                                    -->
  <!-- ================================================================ -->
  <g>
    <path d="M 159.1,739.8 C 489.4,737.7 654.9,740.2 820.5,740.2 C 817.9,837.5 821.0,887.1 821.4,935.9 C 489.5,934.6 325.8,937.7 158.8,935.0 C 164.8,838.6 163.9,788.9 160.0,741.7 Z" fill="#fafafa" stroke="none"/>
    <path d="M 160.1,740.6 C 490.8,740.8 655.7,738.4 820.6,740.9 M 820.9,740.4 C 813.9,837.1 825.5,885.5 821.1,934.4 M 819.6,934.1 C 489.3,936.4 325.1,933.8 159.2,933.9 M 160.0,934.6 C 162.3,838.2 165.0,788.9 159.5,739.0 M 160.4,740.3 C 489.4,738.8 655.2,739.7 820.2,740.0 M 819.0,741.4 C 821.2,836.8 821.1,886.9 821.8,934.1 M 819.6,934.6 C 489.5,934.0 324.8,937.8 159.3,935.9 M 159.9,934.7 C 156.7,837.5 161.1,787.6 161.2,738.6" fill="none" stroke="#404040" stroke-width="2"/>
  </g>
  <text x="180" y="768" font-weight="700" font-size="15" fill="#262626">Grading Worker</text>
  <text x="180" y="786" font-size="11" font-weight="500" fill="#737373">[apps/grading · Python, FastAPI]</text>

  <!-- Entry -->
  <g>
    <path d="M 180.4,800.2 C 489.9,800.8 644.8,797.7 800.1,800.5 C 801.1,817.1 803.6,827.9 800.5,837.2 C 490.4,838.1 334.6,835.9 179.5,836.3 C 178.2,817.2 178.3,808.9 179.0,799.9 Z" fill="#ffffff" stroke="none"/>
    <path d="M 179.7,800.9 C 490.4,797.9 645.3,799.8 800.8,800.7 M 800.1,800.2 C 801.7,817.8 802.8,827.0 801.0,837.4 M 799.4,836.4 C 490.1,837.1 335.4,836.2 179.7,836.7 M 179.1,836.0 C 183.4,818.0 180.7,808.2 181.3,801.5 M 180.1,800.0 C 489.6,800.1 645.2,797.7 799.9,800.5 M 801.4,800.8 C 798.2,818.5 802.3,827.6 800.4,835.7 M 799.4,836.7 C 489.7,834.5 335.4,837.2 180.8,836.0 M 178.7,836.1 C 180.5,817.7 182.5,808.0 180.1,798.6" fill="none" stroke="#d4d4d4" stroke-width="1.2"/>
  </g>
  <text x="490" y="823" font-size="13" font-weight="600" fill="#262626" text-anchor="middle">worker.py</text>

  <!-- Core Logic -->
  <g>
    <path d="M 180.3,845.7 C 369.7,844.9 465.4,846.3 559.6,844.9 C 561.3,862.7 557.7,872.4 559.8,880.3 C 370.4,881.8 274.6,879.0 180.0,880.8 C 178.3,862.5 181.3,853.6 179.5,844.9 Z" fill="#ffffff" stroke="none"/>
    <path d="M 180.2,844.5 C 370.0,845.3 464.6,845.7 560.2,845.5 M 559.6,844.8 C 558.6,862.5 561.5,872.2 560.4,880.9 M 560.4,881.1 C 370.0,881.9 275.1,879.2 180.2,881.1 M 180.1,880.2 C 181.8,862.7 181.1,854.5 179.8,844.4 M 179.4,844.9 C 370.3,846.4 465.3,844.8 560.7,844.6 M 559.9,845.0 C 557.6,862.6 559.2,872.3 559.2,880.2 M 559.8,880.3 C 370.0,882.1 275.0,881.0 179.9,880.4 M 179.2,881.5 C 180.7,863.4 179.4,853.6 179.3,845.0" fill="none" stroke="#d4d4d4" stroke-width="1.2"/>
  </g>
  <text x="195" y="868" font-size="10" font-weight="700" fill="#525252" letter-spacing="0.5">CORE</text>
  <g>
    <path d="M 234.6,850.2 C 285.5,853.0 310.3,850.0 334.8,850.4 C 335.6,863.5 335.6,869.2 335.4,875.7 C 284.8,876.5 259.8,875.2 235.5,875.7 C 236.4,863.2 236.9,857.0 235.4,850.7 Z" fill="#f5f5f5" stroke="none"/>
    <path d="M 235.2,850.9 C 284.9,851.1 309.7,850.5 335.4,850.3 M 335.0,851.8 C 334.6,863.0 336.9,869.2 335.1,874.5 M 335.8,875.2 C 285.3,872.9 259.8,876.3 234.2,875.0 M 234.9,874.6 C 235.4,862.7 235.7,856.5 234.6,850.9 M 234.5,850.9 C 284.7,849.5 310.2,853.4 335.3,850.5 M 335.3,851.0 C 336.2,862.5 334.3,868.6 335.7,875.1 M 334.6,874.9 C 285.0,874.1 260.4,874.5 234.4,875.8 M 235.5,875.2 C 235.7,862.6 235.6,857.0 235.0,850.2" fill="none" stroke="#e5e5e5" stroke-width="1"/>
  </g>
  <text x="285" y="868" font-size="10" font-weight="500" fill="#262626" text-anchor="middle">Writing Pipeline</text>
  <g>
    <path d="M 342.7,851.4 C 393.4,850.0 417.8,851.0 443.8,851.4 C 445.1,863.3 442.2,868.8 442.2,874.4 C 393.1,875.4 367.7,874.7 343.8,875.1 C 341.3,863.5 341.8,857.0 342.2,851.0 Z" fill="#f5f5f5" stroke="none"/>
    <path d="M 342.5,850.8 C 393.2,849.8 418.4,850.6 442.5,850.8 M 442.3,850.2 C 442.4,862.8 442.0,868.8 442.9,874.9 M 442.2,875.4 C 393.1,874.7 368.5,872.9 342.2,874.5 M 342.7,874.4 C 345.1,863.2 343.4,857.3 342.9,850.4 M 342.2,851.3 C 393.2,852.1 418.4,851.9 443.1,851.7 M 443.7,850.4 C 443.7,863.0 443.2,869.4 443.5,875.6 M 443.1,874.3 C 393.6,877.0 367.5,874.2 342.3,874.6 M 343.2,875.2 C 342.6,863.0 343.4,857.5 343.4,850.8" fill="none" stroke="#e5e5e5" stroke-width="1"/>
  </g>
  <text x="393" y="868" font-size="10" font-weight="500" fill="#262626" text-anchor="middle">Speaking Pipeline</text>
  <g>
    <path d="M 451.2,851.3 C 500.9,850.5 526.0,852.8 550.2,850.7 C 551.8,863.2 551.5,868.9 550.4,875.2 C 500.7,873.9 476.3,876.4 450.3,874.6 C 451.6,862.9 452.1,856.9 450.7,851.2 Z" fill="#f5f5f5" stroke="none"/>
    <path d="M 450.9,851.6 C 501.2,849.3 525.9,849.5 550.2,850.6 M 550.4,851.2 C 548.7,862.6 548.6,869.4 551.2,874.9 M 551.6,874.3 C 501.3,875.8 475.8,873.6 451.6,875.6 M 451.8,875.7 C 449.3,863.1 449.4,857.4 450.5,850.9 M 451.5,850.3 C 501.2,848.6 526.4,851.1 550.6,851.1 M 551.7,850.5 C 550.7,863.1 551.4,869.2 550.5,875.6 M 550.4,875.6 C 501.2,873.4 475.7,875.7 451.3,875.4 M 451.0,874.3 C 452.3,863.4 453.0,857.2 451.0,850.4" fill="none" stroke="#e5e5e5" stroke-width="1"/>
  </g>
  <text x="501" y="868" font-size="10" font-weight="500" fill="#262626" text-anchor="middle">Prompt Templates</text>

  <!-- Support -->
  <g>
    <path d="M 574.8,845.0 C 687.5,843.2 744.0,843.7 799.5,844.6 C 797.9,863.3 801.0,872.4 800.3,881.4 C 687.4,880.9 631.6,882.7 574.9,881.5 C 574.6,862.6 573.2,853.8 574.2,844.6 Z" fill="#ffffff" stroke="none"/>
    <path d="M 574.8,844.6 C 687.7,845.1 743.8,846.1 799.6,845.6 M 800.6,844.9 C 798.7,863.1 802.2,872.4 799.4,880.4 M 800.5,880.6 C 687.7,882.6 631.7,882.3 575.3,881.3 M 575.2,881.2 C 576.2,863.2 574.8,853.9 574.5,845.7 M 575.0,844.4 C 687.1,844.3 744.1,844.5 800.4,844.6 M 799.7,845.4 C 798.9,863.3 801.1,871.7 800.5,880.5 M 799.5,881.5 C 687.5,881.0 630.9,881.6 575.4,881.3 M 575.2,881.6 C 574.5,863.0 574.4,853.8 574.9,844.8" fill="none" stroke="#d4d4d4" stroke-width="1.2"/>
  </g>
  <text x="590" y="868" font-size="10" font-weight="700" fill="#525252" letter-spacing="0.5">SUPPORT</text>
  <text x="720" y="868" font-size="10" font-weight="500" fill="#525252" text-anchor="middle">Models · Scoring · Config</text>

  <!-- ================================================================ -->
  <!--  ❺ GRADING → REDIS (Publish Results)                             -->
  <!-- ================================================================ -->
  <path d="M 820.0,830.0 C 839.9,830.2 850.3,828.9 860.0,830.0 M 860.0,830.0 C 860.2,737.7 861.0,691.5 860.0,645.0 M 860.0,645.0 C 717.5,644.9 646.5,644.8 575.0,645.0" fill="none" stroke="#b91c1c" stroke-width="1.5" stroke-dasharray="6 4" marker-end="url(#a-async)"/>
  <text x="895" y="741" font-size="11" font-weight="600" fill="#b91c1c">❺  Publish Result</text>

  <!-- ================================================================ -->
  <!--  LEGEND                                                          -->
  <!-- ================================================================ -->
  <g>
    <path d="M 890.0,879.5 C 1030.4,878.5 1100.3,879.4 1169.6,879.9 C 1170.2,908.0 1168.9,920.8 1170.6,935.5 C 1030.3,935.8 960.0,935.8 889.8,934.6 C 890.9,907.2 891.7,894.2 890.2,879.4 Z" fill="#fafafa" stroke="none"/>
    <path d="M 890.2,879.4 C 1030.2,880.9 1099.6,879.1 1169.7,879.6 M 1169.2,879.5 C 1171.3,906.9 1168.9,920.9 1170.3,935.1 M 1170.6,934.8 C 1030.1,934.2 960.4,935.5 889.5,934.5 M 890.6,935.2 C 890.4,907.3 887.9,893.5 890.6,880.1 M 890.1,880.2 C 1030.3,878.8 1100.1,881.3 1170.0,880.0 M 1169.2,879.6 C 1171.2,907.9 1168.3,921.7 1169.3,934.7 M 1169.3,934.9 C 1030.3,933.7 959.9,936.1 890.4,934.7 M 889.6,934.5 C 887.9,907.0 890.1,893.4 890.4,879.7" fill="none" stroke="#e5e5e5" stroke-width="1"/>
  </g>
  <line x1="908" y1="900" x2="948" y2="900" stroke="#404040" stroke-width="1.8" marker-end="url(#a-sync)"/>
  <text x="956" y="904" font-size="10" fill="#525252">Synchronous (HTTP, SQL)</text>
  <line x1="908" y1="920" x2="948" y2="920" stroke="#b91c1c" stroke-width="1.8" stroke-dasharray="6 4" marker-end="url(#a-async)"/>
  <text x="956" y="924" font-size="10" fill="#525252">Asynchronous (Redis Streams)</text>

</svg>
