<svg xmlns="http://www.w3.org/2000/svg" width="100%" height="100%" viewBox="0 0 1200 1100" style="background-color:#fff"><style>@font-face{font-family:&apos;Comic Shanns&apos;;src:url(https://excalidraw.nyc3.cdn.digitaloceanspaces.com/oss/fonts/ComicShanns/ComicShanns-Regular-279a7b317d12eb88de06167bd672b4b4.woff2) format(&apos;woff2&apos;)}text{font-family:&apos;Comic Shanns&apos;,cursive}</style><defs><marker id="a-sync" markerHeight="6" markerWidth="6" orient="auto" refX="9" refY="5" viewBox="0 0 10 10"><path fill="#404040" d="M 0 0 L 10 5 L 0 10 z"/></marker><marker id="a-async" markerHeight="6" markerWidth="6" orient="auto" refX="9" refY="5" viewBox="0 0 10 10"><path fill="#b91c1c" d="M 0 0 L 10 5 L 0 10 z"/></marker></defs><rect width="600" height="120" x="300" y="40" fill="#fafafa" stroke="#d4d4d4" stroke-width="1.5" rx="6"/><text x="600" y="65" fill="#a3a3a3" font-size="10" font-weight="700" letter-spacing=".5" text-anchor="middle">CLIENT LAYER</text><rect width="900" height="120" x="150" y="240" fill="#fafafa" stroke="#d4d4d4" stroke-width="1.5" rx="6"/><text x="600" y="265" fill="#a3a3a3" font-size="10" font-weight="700" letter-spacing=".5" text-anchor="middle">API LAYER</text><rect width="900" height="140" x="150" y="440" fill="#fafafa" stroke="#d4d4d4" stroke-width="1.5" rx="6"/><text x="600" y="465" fill="#a3a3a3" font-size="10" font-weight="700" letter-spacing=".5" text-anchor="middle">DATA LAYER</text><rect width="900" height="140" x="150" y="660" fill="#fafafa" stroke="#d4d4d4" stroke-width="1.5" rx="6"/><text x="600" y="685" fill="#a3a3a3" font-size="10" font-weight="700" letter-spacing=".5" text-anchor="middle">GRADING SERVICE</text><rect width="700" height="120" x="250" y="880" fill="#fafafa" stroke="#d4d4d4" stroke-width="1.5" rx="6"/><text x="600" y="905" fill="#a3a3a3" font-size="10" font-weight="700" letter-spacing=".5" text-anchor="middle">EXTERNAL SERVICES</text><path fill="none" stroke="#404040" stroke-width="1.8" d="M 600 160 L 600 183"/><text x="600" y="199" fill="#404040" font-size="11" font-weight="600" text-anchor="middle">REST / JSON</text><path fill="none" stroke="#404040" stroke-width="1.8" marker-end="url(#a-sync)" d="M 600 205 L 600 235"/><path fill="none" stroke="#404040" stroke-width="1.8" d="M 310 360 L 310 383"/><text x="310" y="399" fill="#404040" font-size="11" font-weight="600" text-anchor="middle">Drizzle ORM</text><path fill="none" stroke="#404040" stroke-width="1.8" marker-end="url(#a-sync)" d="M 310 405 L 310 435"/><path fill="none" stroke="#b91c1c" stroke-dasharray="6 4" stroke-width="1.8" d="M 600 360 L 600 383"/><text x="600" y="399" fill="#b91c1c" font-size="11" font-weight="600" text-anchor="middle">Redis Streams</text><path fill="none" stroke="#b91c1c" stroke-dasharray="6 4" stroke-width="1.8" marker-end="url(#a-async)" d="M 600 405 L 600 435"/><path fill="none" stroke="#404040" stroke-width="1.8" d="M 890 360 L 890 383"/><text x="890" y="399" fill="#404040" font-size="11" font-weight="600" text-anchor="middle">S3 API</text><path fill="none" stroke="#404040" stroke-width="1.8" marker-end="url(#a-sync)" d="M 890 405 L 890 435"/><path fill="none" stroke="#b91c1c" stroke-dasharray="6 4" stroke-width="1.8" d="M 600 580 L 600 603"/><text x="600" y="619" fill="#b91c1c" font-size="11" font-weight="600" text-anchor="middle">Task Queue</text><path fill="none" stroke="#b91c1c" stroke-dasharray="6 4" stroke-width="1.8" marker-end="url(#a-async)" d="M 600 625 L 600 655"/><path fill="none" stroke="#b91c1c" stroke-dasharray="6 4" stroke-width="1.8" d="M 600 800 L 600 845"/><path fill="none" stroke="#b91c1c" stroke-dasharray="6 4" stroke-width="1.8" d="M 600 845 L 440 845"/><path fill="none" stroke="#b91c1c" stroke-dasharray="6 4" stroke-width="1.8" d="M 600 845 L 760 845"/><path fill="none" stroke="#b91c1c" stroke-dasharray="6 4" stroke-width="1.8" marker-end="url(#a-async)" d="M 440 845 L 440 875"/><path fill="none" stroke="#b91c1c" stroke-dasharray="6 4" stroke-width="1.8" marker-end="url(#a-async)" d="M 760 845 L 760 875"/><text x="600" y="838" fill="#b91c1c" stroke="#fff" stroke-linejoin="round" stroke-width="4" font-size="11" font-weight="600" paint-order="stroke" text-anchor="middle">HTTPS</text><rect width="500" height="60" x="350" y="80" fill="#fff" stroke="#d4d4d4" stroke-width="1.2" rx="6"/><image width="40" height="40" x="375" y="90" href="https://cdn.jsdelivr.net/gh/devicons/devicon@latest/icons/react/react-original.svg"/><text x="430" y="105" fill="#262626" font-size="15" font-weight="700">Web Application</text><text x="430" y="125" fill="#737373" font-size="13" font-weight="400">React 19 • Vite 7 • TypeScript SPA</text><rect width="800" height="60" x="200" y="280" fill="#fff" stroke="#d4d4d4" stroke-width="1.2" rx="6"/><image width="40" height="40" x="225" y="290" href="https://cdn.jsdelivr.net/gh/devicons/devicon@latest/icons/bun/bun-original.svg"/><text x="285" y="305" fill="#262626" font-size="15" font-weight="700">Backend API Server</text><text x="285" y="325" fill="#737373" font-size="13" font-weight="400">Bun • Elysia • JWT Auth</text><rect width="260" height="80" x="180" y="480" fill="#fff" stroke="#d4d4d4" stroke-width="1.2" rx="6"/><image width="45" height="45" x="200" y="495" href="https://cdn.jsdelivr.net/gh/devicons/devicon@latest/icons/postgresql/postgresql-original.svg"/><text x="260" y="515" fill="#262626" font-size="15" font-weight="700">PostgreSQL 17</text><text x="260" y="535" fill="#737373" font-size="13" font-weight="400">Primary Database</text><rect width="260" height="80" x="470" y="480" fill="#fff" stroke="#d4d4d4" stroke-width="1.2" rx="6"/><image width="45" height="45" x="490" y="495" href="https://cdn.jsdelivr.net/gh/devicons/devicon@latest/icons/redis/redis-original.svg"/><text x="550" y="515" fill="#262626" font-size="15" font-weight="700">Redis 7</text><text x="550" y="535" fill="#737373" font-size="13" font-weight="400">Streams • Cache</text><rect width="260" height="80" x="760" y="480" fill="#fff" stroke="#d4d4d4" stroke-width="1.2" rx="6"/><image width="45" height="45" x="780" y="495" href="https://cdn.jsdelivr.net/npm/simple-icons@v13/icons/amazons3.svg"/><text x="840" y="515" fill="#262626" font-size="15" font-weight="700">Object Storage</text><text x="840" y="535" fill="#737373" font-size="13" font-weight="400">S3-compatible • Audio files</text><rect width="260" height="80" x="180" y="700" fill="#fff" stroke="#d4d4d4" stroke-width="1.2" rx="6"/><image width="45" height="45" x="200" y="715" href="https://cdn.jsdelivr.net/gh/devicons/devicon@latest/icons/python/python-original.svg"/><text x="260" y="735" fill="#262626" font-size="15" font-weight="700">Grading Worker</text><text x="260" y="755" fill="#737373" font-size="13" font-weight="400">Python • FastAPI</text><rect width="260" height="80" x="470" y="700" fill="#fff" stroke="#d4d4d4" stroke-width="1.2" rx="6"/><g transform="translate(495, 718)"><path fill="none" stroke="#737373" stroke-width="2" d="M2,2 L2,34 C2,36.2 3.8,38 6,38 L32,38 C34.2,38 36,36.2 36,34 L36,12 L26,2 Z"/><path fill="none" stroke="#737373" stroke-width="2" d="M26,2 L26,12 L36,12"/><line x1="10" x2="26" y1="18" y2="18" stroke="#a3a3a3" stroke-linecap="round" stroke-width="2"/><line x1="10" x2="22" y1="24" y2="24" stroke="#a3a3a3" stroke-linecap="round" stroke-width="2"/><line x1="10" x2="26" y1="30" y2="30" stroke="#a3a3a3" stroke-linecap="round" stroke-width="2"/></g><text x="550" y="735" fill="#262626" font-size="15" font-weight="700">Writing Pipeline</text><text x="550" y="755" fill="#737373" font-size="13" font-weight="400">LLM • VSTEP Rubric</text><rect width="260" height="80" x="760" y="700" fill="#fff" stroke="#d4d4d4" stroke-width="1.2" rx="6"/><g transform="translate(785, 715)"><rect width="12" height="20" x="14" y="2" fill="#f97316" rx="6"/><path fill="none" stroke="#f97316" stroke-linecap="round" stroke-width="3" d="M6,14 C6,21.7 12.3,28 20,28 C27.7,28 34,21.7 34,14"/><line x1="20" x2="20" y1="28" y2="36" stroke="#f97316" stroke-width="3"/><line x1="12" x2="28" y1="36" y2="36" stroke="#f97316" stroke-linecap="round" stroke-width="3"/></g><text x="840" y="735" fill="#262626" font-size="15" font-weight="700">Speaking Pipeline</text><text x="840" y="755" fill="#737373" font-size="13" font-weight="400">STT + LLM • VSTEP Rubric</text><rect width="280" height="60" x="300" y="920" fill="#fff" stroke="#d4d4d4" stroke-width="1.2" rx="6"/><image width="35" height="35" x="320" y="930" href="https://cdn.jsdelivr.net/npm/simple-icons@v13/icons/openai.svg"/><text x="370" y="945" fill="#262626" font-size="14" font-weight="700">LLM Provider</text><text x="370" y="965" fill="#737373" font-size="12" font-weight="400">OpenAI GPT-4o • Cloudflare AI</text><rect width="280" height="60" x="620" y="920" fill="#fff" stroke="#d4d4d4" stroke-width="1.2" rx="6"/><image width="40" height="40" x="640" y="930" href="https://cdn.jsdelivr.net/gh/devicons/devicon@latest/icons/cloudflare/cloudflare-original.svg"/><text x="690" y="945" fill="#262626" font-size="14" font-weight="700">STT Provider</text><text x="690" y="965" fill="#737373" font-size="12" font-weight="400">Cloudflare Workers AI</text><rect width="280" height="55" x="870" y="1020" fill="#fafafa" stroke="#e5e5e5" stroke-width="1" rx="4"/><line x1="888" x2="928" y1="1040" y2="1040" stroke="#404040" stroke-width="1.8" marker-end="url(#a-sync)"/><text x="936" y="1044" fill="#525252" font-size="10">Synchronous (HTTP, SQL)</text><line x1="888" x2="928" y1="1060" y2="1060" stroke="#b91c1c" stroke-dasharray="6 4" stroke-width="1.8" marker-end="url(#a-async)"/><text x="936" y="1064" fill="#525252" font-size="10">Asynchronous (Redis Streams)</text></svg>